<svg width="19" height="19" viewBox="0 0 19 19" fill="none" xmlns="http://www.w3.org/2000/svg">
<g clip-path="url(#clip0_7_108)">
<path d="M3.75224 10.6648C3.94343 11.3784 4.27328 12.0472 4.72296 12.6333C5.17265 13.2193 5.73336 13.711 6.37308 14.0804C7.0128 14.4497 7.719 14.6894 8.45137 14.7859C9.18373 14.8823 9.92792 14.8335 10.6414 14.6423C11.3549 14.4511 12.0238 14.1213 12.6099 13.6716C13.1959 13.2219 13.6876 12.6612 14.057 12.0215C14.4263 11.3818 14.666 10.6756 14.7625 9.94319C14.8589 9.21083 14.8101 8.46664 14.6189 7.75312C14.4277 7.03961 14.0979 6.37074 13.6482 5.7847C13.1985 5.19866 12.6378 4.70693 11.9981 4.33759C11.3584 3.96825 10.6522 3.72852 9.91979 3.6321C9.18742 3.53569 8.44323 3.58446 7.72972 3.77565C7.0162 3.96684 6.34733 4.29669 5.76129 4.74637C5.17525 5.19605 4.68353 5.75676 4.31418 6.39648C3.94484 7.0362 3.70512 7.74241 3.6087 8.47477C3.51228 9.20714 3.56106 9.95132 3.75224 10.6648Z" stroke="#70747B" stroke-linecap="round" stroke-linejoin="round"/>
<path d="M7.37449 9.69425L8.90542 10.5781L10.6732 7.51628" stroke="#70747B" stroke-linecap="round" stroke-linejoin="round"/>
</g>
<defs>
<clipPath id="clip0_7_108">
<rect width="15" height="15" fill="white" transform="translate(0 3.90567) rotate(-15)"/>
</clipPath>
</defs>
</svg>